<?xml version="1.0" encoding="UTF-8"?>
<svg id="Ebene_1" xmlns="http://www.w3.org/2000/svg" version="1.1" viewBox="0 0 3102.1 1159.3">
  <!-- Generator: Adobe Illustrator 29.4.0, SVG Export Plug-In . SVG Version: 2.1.0 Build 152)  -->
  <defs>
    <style>
      .st0 {
        fill: #010101;
      }

      .st1 {
        fill: #f39200;
      }

      .st2 {
        fill: #1d1d1b;
        font-family: Gotham-Medium, Gotham;
        font-size: 191px;
        font-weight: 500;
        isolation: isolate;
      }

      .st3 {
        fill: #6e8089;
        fill-rule: evenodd;
      }

      .st4 {
        fill: #58a0bd;
      }

      .st5 {
        fill: #fff;
      }

      .st6 {
        fill: #ec9036;
      }
    </style>
  </defs>
  <g id="Ebene_5">
    <path class="st0" d="M365.7,585.2c-3.4-7.6-4.9-16-6.1-24.2-1.6-11.2-2.6-22.5-2.8-33.8-.3-9.8.2-19.5,1.6-29.2-19.4,5.9-43,11.9-70.5,20,19.8,24.3,30.9,36.6,30.2,95.7,18-10.3,33.8-19.7,47.6-28.4Z"/>
  </g>
  <g id="Layer_1">
    <path class="st4" d="M960.2,434.8h153.4c23.3,0,44.6,2.9,63.7,8.7,19.1,5.8,35.6,14.2,49.5,25.3,13.7,10.8,24.8,24.6,32.3,40.3,7.6,15.8,11.5,34,11.5,54.4v1.2c0,22-4.4,41.5-13.3,58.3-8.6,16.6-20.9,31-35.9,42.1-15.1,11.2-32.6,19.6-52.5,25.3-20.5,5.7-41.8,8.5-63.1,8.4h-114.2v157h-31.4v-421ZM1107.5,670.5c19.7,0,37.6-2.4,53.7-7.3,16.1-4.8,29.9-11.8,41.4-20.9,11.3-8.9,20.5-20.1,26.9-33,6.4-12.9,9.7-27.2,9.7-43v-1.2c0-16.9-3.1-31.8-9.4-44.5-6.1-12.5-15.1-23.4-26.3-31.8-11.3-8.5-24.8-14.9-40.5-19.4-15.7-4.4-33-6.7-51.9-6.7h-119.6v207.5h116Z"/>
    <path class="st4" d="M1394.3,953.8c-10.6.1-21.1-1-31.4-3.4-10.1-2.6-20-5.9-29.6-10.1l10.3-26.2c7.5,3.8,15.4,6.7,23.5,8.7,7.6,1.8,17.3,2.7,29,2.7,7.6,0,15.2-1.1,22.4-3.6,7.2-2.7,13.8-6.9,19.3-12.3,6.8-6.7,12.6-14.3,17.5-22.5,6.4-10.8,12.1-22,16.9-33.6l-147.9-304.4h34.4l128,274.2,111.2-274.2h32.6l-133.5,317.6c-13.7,32.1-28.7,54.6-45,67.7-16.3,13-35.5,19.6-57.7,19.5Z"/>
    <path class="st6" d="M1710.6,445.8h140.7c33,0,63.3,5.3,90.9,15.9,27.6,10.6,51.3,25.4,71.3,44.2,19.8,18.7,35.6,41.3,46.2,66.5,10.9,25.5,16.3,53,16.3,82.7v1.2c0,29.7-5.4,57.3-16.3,83-10.6,25.2-26.3,48-46.2,66.8-19.9,18.8-43.7,33.7-71.3,44.5-27.6,10.8-57.9,16.2-90.9,16.2h-140.7v-421ZM1851.3,838.5c29.4,0,56-4.7,79.7-14.2,23.8-9.4,43.9-22.3,60.4-38.6,16.5-16.3,29.6-35.8,38.3-57.3,9.1-21.9,13.6-45.6,13.6-70.9v-1.2c.1-24.2-4.5-48.2-13.6-70.6-8.8-21.7-21.8-41.4-38.3-57.9-16.5-16.5-36.6-29.6-60.4-39.2-23.7-9.7-50.3-14.5-79.7-14.5h-109.3v364.4h109.3Z"/>
    <path class="st6" d="M2269.7,874c-14.5,0-28.9-2-42.9-6-13.6-3.8-26.5-9.9-38.1-18-11.2-7.9-20.6-18.2-27.5-30.1-7-12-10.6-26-10.6-42.1v-1.2c0-16,3.3-30.3,10-42.7,6.6-12.4,16-23.1,27.5-31.3,11.7-8.4,25.8-14.8,42.3-19.2s34.8-6.6,55-6.6c21.7,0,40.5,1.2,56.2,3.6,15.5,2.4,30.8,5.6,45.9,9.6v-13.2c0-31.1-9-54.4-26.9-70-17.9-15.6-42.8-23.3-74.6-23.3s-36.2,2.3-51.9,6.9c-15.4,4.5-30.4,10.4-44.7,17.7l-10.9-25.9c16.5-8,33.7-14.6,51.3-19.7,17.3-4.9,36.6-7.4,58-7.4,42.3,0,74.7,11.2,97.2,33.7,20.9,20.8,31.4,49.7,31.4,86.6v191.2h-29v-51.1c-5.7,7.7-12,14.8-19,21.4-7.8,7.2-16.4,13.5-25.7,18.6-10.4,5.7-21.5,10.2-32.9,13.2-13.1,3.5-26.6,5.2-40.2,5.1ZM2271.5,845.7c15.2,0,30.3-2.2,44.7-6.9,13.4-4.2,25.9-10.7,37.1-19.2,10.5-8,19.1-18,25.4-29.6,6.3-11.8,9.5-25,9.3-38.3v-34.8c-12.9-3.2-28-6.3-45.3-9.3s-37-4.5-59.2-4.5c-32.6,0-57.7,6.5-75.2,19.5-17.5,13-26.3,30.2-26.3,51.8v1.2c0,11.2,2.4,21.1,7.2,29.6,4.9,8.6,11.6,16.1,19.6,21.9,8.7,6.2,18.4,10.9,28.6,13.8,11,3.2,22.4,4.8,33.9,4.8h0Z"/>
    <path class="st6" d="M2625.4,872.2c-11.4.1-22.8-1.5-33.8-4.8-20.9-6.1-37.9-21.5-45.9-41.8-4.5-10.6-6.7-23.1-6.7-37.6v-200.9h-44.7v-27.1h44.7v-98h29.6v98h108.1v27.1h-108v197.4c0,22,5.7,37.4,17.2,46.2,11.5,8.8,26.3,13.2,44.4,13.2,7.3,0,14.6-.7,21.7-2.3,8.1-1.9,16-4.6,23.5-8v27.7c-7.7,3.5-15.7,6.2-23.9,8.1-8.6,1.9-17.4,2.8-26.3,2.7Z"/>
    <path class="st6" d="M2857.9,874c-14.5,0-28.9-2-42.9-6-13.6-3.8-26.5-9.9-38-18-11.2-7.9-20.6-18.2-27.5-30-7-12-10.6-26-10.6-42.1v-1.2c0-16,3.3-30.3,10-42.7,6.6-12.4,16-23.1,27.5-31.3,11.7-8.4,25.8-14.8,42.3-19.2,16.5-4.4,34.8-6.6,54.9-6.6,21.7,0,40.5,1.2,56.2,3.6,15.5,2.4,30.8,5.6,45.9,9.6v-13.2c0-31.1-9-54.4-26.9-70-17.9-15.6-42.8-23.3-74.6-23.3s-36.2,2.3-51.9,6.9c-15.4,4.5-30.4,10.4-44.7,17.7l-10.9-25.9c16.5-8,33.7-14.6,51.3-19.7,17.3-4.9,36.6-7.4,58-7.4,42.3,0,74.7,11.2,97.2,33.7,20.9,20.8,31.4,49.7,31.4,86.6v191.2h-29v-51.1c-5.7,7.7-12,14.8-19,21.4-7.8,7.2-16.4,13.5-25.7,18.6-10.4,5.7-21.4,10.2-32.9,13.2-13.1,3.5-26.6,5.2-40.1,5.1ZM2859.7,845.7c15.2,0,30.3-2.2,44.7-6.9,13.4-4.2,25.9-10.7,37.1-19.2,10.5-8,19.1-18,25.4-29.6,6.3-11.8,9.5-25,9.4-38.3v-34.8c-12.9-3.2-28-6.3-45.3-9.3-17.3-3-37-4.5-59.2-4.5-32.6,0-57.7,6.5-75.2,19.5-17.5,13-26.3,30.2-26.3,51.8v1.2c0,11.2,2.4,21.1,7.2,29.6,4.9,8.6,11.6,16.1,19.7,21.9,8.7,6.2,18.4,10.9,28.6,13.8,11,3.2,22.4,4.8,33.8,4.8h0Z"/>
    <path class="st4" d="M351,461.1l242.6,126.8v259.3M351,461.1v259.3l242.6,126.8"/>
    <path class="st6" d="M606,564.3l-240.9-126.8,242.6-124.6,242.6,125.3-244.4,126h0Z"/>
    <polyline class="st3" points="621.9 587.9 864.6 461.1 864.6 720.3 621.9 847.2"/>
    <path class="st6" d="M621.2,30.8l242.7,126.8v259.3M621.2,30.8v259.3l242.7,126.8"/>
    <text class="st2" transform="translate(2475.5 1080.1)"><tspan x="0" y="0">Berlin</tspan></text>
  </g>
  <g id="Ebene_4">
    <path class="st1" d="M713,237.7c3.1,0,3.1-4.8,0-4.8s-3.1,4.8,0,4.8Z"/>
    <path class="st1" d="M203.6,432.3c20.9-12.6,94.7,12.4,94.9-36.6,0-8.3-7-7.9-7.2-.2,0,7.4-4.3,17.4-39.6,23-17.5,2.9-36.6-.2-47.2,4.9"/>
    <path class="st1" d="M508.1,650.4c2.5-8.5,5.1-19.6,10.9-25.3-8.9-.8-14.5,6.4-18.3,11.5,2.1-8.5,4.5-20.1,10.4-25.3-9.4-1-16.4,7.4-19.4,14.2,1.5-8.1,3.8-18.7,10-24.7-9.2-1.1-15.5,6-20.6,15.7,1.9-8.3,4.9-19.4,10-24-9.4-1.1-17.4,8.1-20.6,16.8,1.3-7.7,4.9-19.8,9.6-23-10.2-1.3-19.3,9.6-21.5,20"/>
    <path class="st1" d="M441.7,1036.1c7.2-3.8,17-7.2,23.4-5.9-3.6-4.1-9.6-8.1-19.6-7.9,5.3-2.4,14-7,21.7-5.3-5.6-6.5-14.3-9.3-22.6-7.4,6.2-3.6,15.9-6.8,21.7-5.5-7-8.5-18.1-9.1-25.3-6.6,5.5-3.2,15.9-7.5,22.3-5.8-5.5-7.6-19.6-10.2-26.4-5.9,4.2-3.4,14.7-7.4,21.9-6-6.4-8.3-20.2-10.4-30.2-4.3"/>
    <path class="st1" d="M155.6,1100.8c9.8-.8,19.8-.6,25.5,3-3.4-6.8-6.8-11.1-17-14.9,9.8-.6,17.7-1,23.8,3-2.3-6.6-9.4-13.8-19.4-15.3,6.8-1.7,18.9-.6,23.2,2.3-2.6-7.7-11.5-14.7-20.8-15.1,4.9-2.1,18.1-1.1,22.3,2.3-2.1-7.5-12.3-15.8-22.4-15.3,7.4-2.3,18.7-.6,22.3,2.3-3.2-9.2-14-17.2-27-15.5"/>
    <path class="st0" d="M233.6,344.8c-18.7-12.4-35.8-20.6-65.8-20.6s-37.4,4.7-55.3,9.4c-22.3-18.5-60.9,11.1-32.8,40.7-4.2,16.4-6,28.3-6.2,44.3-.4,58.1,15.7,52.1,15.9,80,.2,9.6-8.9,30.7-9.1,47-.6,38.5,25.5,81.7,25.5,104.7s-5.7,33.6-10.8,49.7c-13,39.4-7.9,100.6-39.4,139.6l1.5,21.9,10.6-.2c-.4,12.1-3.8,98.9-11.1,129-2.6,10.6-12.3,24-3.4,35.5,7.2,9.2,16.2,18.7,23.8,28.1,17.9,22.8,48.9,46,78.7,47,17,.6,25.7-63.2,14.1-63.8-10.8-.6-21.9-.8-31.3-5.5-7.2-2.9-7.6-12.1-2.6-17,48.5-48.1,76-69.8,82.1-173.2l8.3.4c.6,27.2-4.5,53.2-11.3,79.3,17.2,8.1,34.5,18.7,47.9,31.9,27.9,26.4,39.8,65.3,48.3,101.9,1,10.2,10.6,16.8,20.2,17.7,17,2.6,31.3-7.2,46.2-13.2,22.6-11.7,44.9-13.8,65.3-23.8,10.9-5.3-.6-59.6-11.3-61.5-6.6-1.1-14.5,1.9-20.6,4.5-13.4,5.1-21.1,19.1-35.1,22.3-5.1,1.9-11.9-1.1-10.6-7.4,6.8-37.5,9.8-78.1-6.2-113.8-14.5-29.6-37.2-58.2-97.7-87-4.7,4.5-13.4,14.2-18.5,17.2l-5.9-4.3c28.5-25.3,40.8-41.5,51.3-83-7.7-2.4-15.2-5.3-22.6-8.5l2.5-7.7c11.5,3.4,64.2,25.7,124.7,25.3,58.5-.4,93.6-47.2,115.1-79.8,9.4-14.3-41.9-56.8-49.7-47.9-15.1,17.2-25.5,34.1-38.5,56.6-3.8,6.4-21.9,1.9-28.9-1.3-28.5-13.3-71.9-36.3-95.7-47.6l1.5-7.2,13.2,5.8c1.3-23-1.5-46.8-13-66.8-13.8-25.3-39.2-40.4-63.4-54.1-9.2-5.9-21.7-12.8-20.6-25.3,44.5,1,50-2.5,50.2-14.9l-6-.6c.8-10.8-2.1-13-6.8-16-1.7,3.7-3.9,7.3-6.4,10.6v-2.1c0-6.6-11.7-7.4-15.5-3.2-3.4-5.5-18.3-4.3-18.5,2.1v4.6l-6.2-.6c0-11.1,1.1-22.8,7.7-31.9,2-2.4,4.2-4.6,6.6-6.6,1.3,2.6,3.2,5.5,7.2,5.5s8.5-.2,10.8-5.7c2.5,3.8,11.7,3.6,13.6-1.7.8-2.1.8-5.7.2-9.1.2-.2.6-.2,1-.4,4.7,3.2,7.7,6.6,8.7,14.2,9.6-7.7,10.6-12.4,9.1-21.7,11.9-8.7,15.1-19.4,15.3-36,0-2.6-1.7-3.8-4-4l-46-1.7"/>
    <path class="st5" d="M173.7,380.8c2.9,0,7.9-1.5,9.4-3.6,16.4-25.1,20.6-16,23-7.4,2.1,7.7,11.1,7.9,8.5-2.5-6.6-25.5-24.5-21.9-46.8,13.4M119.8,355.3c-4.5-6-11.5-11.9-19.1-14.3-11.1-3.8-15.7,5.3-6.8,8.3,7,3.1,13.4,7.5,18.9,13M266.1,388c-3.9,2.4-8.2,4.2-12.6,5.5,3.2,2.6,6.2,6.4,7.2,10.6,5-3.6,7.2-10.1,5.5-16M236,398c0,2.1.4,4.2,1.3,6,1.9,3,8.9,2.9,10.4-1.3.6-2.5.5-5.1-.2-7.5-3.8,1-7.7,1.7-11.5,2.9M233.7,398.6c-5.1,1.5-10,3.2-14.3,6,1,2.3,2.6,4.5,6,4.5s6.4-.2,8.3-3.8c1-1.9.6-4.5,0-6.8M255,448.6c.6-5.3,0-9.8-4.2-12.8-2,3.7-4.3,7.3-7,10.6v1.3M242,447.5v-6c0-6.2-13.2-5.8-13.4,0v4.7M226.9,446.1v-5.3c0-6.2-15.3-5.8-15.3-.2v4.2"/>
  </g>
  <g id="Ebene_6">
    <path class="st4" d="M351,751.8l242.6,126.8v259.3M351,751.8v259.3l242.6,126.8"/>
  </g>
</svg>